<?xml version="1.0" standalone="no"?>
<!DOCTYPE svg PUBLIC "-//W3C//DTD SVG 20010904//EN"
 "http://www.w3.org/TR/2001/REC-SVG-20010904/DTD/svg10.dtd">
<svg version="1.0" xmlns="http://www.w3.org/2000/svg"
 width="644.000000pt" height="644.000000pt" viewBox="0 0 644.000000 644.000000"
 preserveAspectRatio="xMidYMid meet">
<metadata>
Created by potrace 1.11, written by Peter Selinger 2001-2013
</metadata>
<g transform="translate(0.000000,644.000000) scale(0.100000,-0.100000)"
fill="#000000" stroke="none">
<path d="M0 3220 l0 -3220 3220 0 3220 0 0 3220 0 3220 -3220 0 -3220 0 0
-3220z m3426 2020 c122 -22 218 -50 367 -109 54 -21 217 -122 279 -173 67 -55
154 -141 202 -198 58 -70 201 -306 416 -685 66 -116 119 -207 295 -510 70
-121 152 -263 182 -315 31 -52 63 -108 73 -125 9 -16 45 -79 80 -140 68 -119
152 -265 208 -360 20 -33 52 -89 72 -125 21 -36 70 -121 110 -190 40 -69 99
-170 130 -225 47 -83 121 -211 230 -400 10 -16 50 -86 90 -155 135 -231 220
-380 220 -385 0 -3 -316 -4 -702 -3 l-703 3 -92 160 c-50 88 -109 192 -131
230 -21 39 -99 174 -172 300 -74 127 -152 264 -175 305 -23 41 -81 142 -128
224 -48 82 -87 151 -87 152 0 2 -25 44 -55 94 -30 50 -55 93 -55 96 0 4 -22
43 -49 88 -27 44 -60 101 -74 126 -13 25 -41 74 -62 110 -21 36 -51 90 -68
120 -17 30 -48 83 -69 118 -21 34 -38 64 -38 67 0 2 -25 46 -56 97 -31 51 -59
100 -63 108 -3 9 -31 58 -62 110 -68 115 -157 271 -184 322 -10 20 -23 35 -27
32 -4 -3 -8 -389 -8 -857 l0 -852 51 -29 c37 -20 62 -45 89 -88 59 -90 65
-180 20 -270 -94 -188 -325 -226 -469 -77 -123 128 -102 320 47 426 l62 45 0
854 c0 470 -3 854 -7 854 -5 0 -21 -24 -37 -53 -16 -28 -93 -164 -171 -302
-79 -137 -153 -268 -165 -290 -12 -22 -39 -69 -60 -105 -20 -36 -48 -85 -62
-110 -98 -176 -172 -307 -178 -315 -4 -5 -20 -32 -35 -60 -15 -27 -44 -79 -65
-115 -102 -177 -165 -289 -185 -325 -26 -49 -110 -198 -179 -317 -28 -48 -70
-120 -92 -160 -23 -40 -70 -122 -104 -182 -34 -61 -66 -117 -71 -125 -4 -9
-32 -59 -62 -111 -30 -52 -66 -115 -79 -140 -14 -25 -40 -71 -57 -102 l-33
-58 -709 0 c-392 0 -709 4 -709 9 0 4 9 20 20 34 11 14 20 27 20 30 0 2 30 56
66 118 37 63 82 141 100 174 19 33 38 67 44 75 15 23 65 111 158 275 47 83 93
161 102 175 9 14 31 50 47 80 71 129 268 470 397 687 36 62 66 115 66 118 0 3
27 50 60 104 33 55 60 102 60 105 0 4 22 43 50 87 27 44 50 82 50 84 0 1 36
64 80 139 44 76 80 139 80 141 0 3 16 29 35 59 19 30 35 58 35 61 0 3 20 38
44 78 24 39 54 90 66 112 38 68 141 247 175 305 18 30 48 82 66 115 17 33 40
71 49 85 10 14 34 57 55 95 21 39 62 106 90 150 198 308 537 533 901 599 94
17 366 20 450 6z"/>
</g>
</svg>
