<?xml version="1.0" standalone="no"?>
<!DOCTYPE svg PUBLIC "-//W3C//DTD SVG 20010904//EN"
 "http://www.w3.org/TR/2001/REC-SVG-20010904/DTD/svg10.dtd">
<svg version="1.0" xmlns="http://www.w3.org/2000/svg"
 width="300.000000pt" height="300.000000pt" viewBox="0 0 300.000000 300.000000"
 preserveAspectRatio="xMidYMid meet">
<metadata>
Created by potrace 1.11, written by Peter Selinger 2001-2013
</metadata>
<g transform="translate(0.000000,300.000000) scale(0.100000,-0.100000)"
fill="#000000" stroke="none">
<path d="M0 1500 l0 -1500 1500 0 1500 0 0 1500 0 1500 -1500 0 -1500 0 0
-1500z m450 85 c0 -8 -7 -15 -15 -15 -8 0 -15 7 -15 15 0 8 7 15 15 15 8 0 15
-7 15 -15z m700 -20 c0 -33 2 -34 28 -29 44 9 62 -16 62 -87 0 -46 -3 -59 -15
-59 -12 0 -15 13 -15 60 0 45 -4 62 -15 66 -28 11 -45 -16 -45 -72 0 -41 -4
-54 -15 -54 -12 0 -15 18 -15 105 0 87 3 105 15 105 10 0 15 -11 15 -35z
m-700 -100 c0 -60 -3 -75 -15 -75 -12 0 -15 15 -15 75 0 60 3 75 15 75 12 0
15 -15 15 -75z m130 65 c19 -12 31 -140 13 -140 -6 0 -15 5 -19 11 -4 8 -9 8
-17 0 -15 -15 -60 -14 -75 1 -31 31 -8 58 61 73 20 4 27 11 25 23 -4 23 -49
28 -64 7 -7 -9 -18 -15 -25 -13 -9 3 -6 11 9 26 23 23 66 29 92 12z m90 -2 c0
-9 3 -9 12 0 17 17 44 15 62 -4 22 -22 23 -134 1 -134 -12 0 -15 13 -15 60 0
45 -4 62 -15 66 -28 11 -45 -16 -45 -72 0 -41 -4 -54 -15 -54 -12 0 -15 15
-15 75 0 60 3 75 15 75 8 0 15 -5 15 -12z m240 2 c19 -12 31 -140 13 -140 -6
0 -15 5 -19 11 -4 8 -9 8 -17 0 -15 -15 -60 -14 -75 1 -31 31 -8 58 61 73 20
4 27 11 25 23 -4 23 -49 28 -64 7 -7 -9 -18 -15 -25 -13 -9 3 -6 11 9 26 23
23 66 29 92 12z m155 -6 c22 -22 11 -30 -19 -14 -27 14 -60 7 -54 -12 3 -7 20
-16 39 -21 40 -10 59 -24 59 -43 0 -21 -30 -44 -58 -44 -29 0 -72 24 -72 41 0
14 26 11 40 -6 16 -19 55 -16 55 4 0 7 -20 21 -45 30 -28 10 -46 24 -48 36 -8
40 70 62 103 29z m245 4 c0 -9 3 -9 12 0 14 14 54 16 62 3 4 -5 19 -4 36 2 50
19 64 2 68 -77 2 -54 0 -66 -13 -66 -12 0 -15 13 -15 60 0 45 -4 62 -15 66
-28 11 -45 -16 -45 -72 0 -41 -4 -54 -15 -54 -12 0 -15 13 -15 60 0 45 -4 62
-15 66 -28 11 -45 -16 -45 -72 0 -41 -4 -54 -15 -54 -12 0 -15 15 -15 75 0 60
3 75 15 75 8 0 15 -5 15 -12z m329 -14 c12 -15 21 -38 21 -51 0 -31 -42 -73
-74 -73 -29 0 -66 42 -66 75 0 35 37 75 70 75 19 0 36 -9 49 -26z m131 15 c0
-5 -9 -9 -19 -9 -24 0 -31 -19 -31 -81 0 -37 -4 -49 -15 -49 -12 0 -15 15 -15
74 l0 74 40 0 c22 0 40 -3 40 -9z m127 -11 c13 -12 23 -30 23 -40 0 -15 -8
-18 -55 -18 -56 0 -69 -12 -43 -38 16 -16 38 -15 59 4 28 25 47 12 21 -14 -28
-28 -69 -28 -99 0 -29 27 -30 67 -2 102 25 32 64 34 96 4z m235 0 c16 -16 18
-23 8 -26 -7 -3 -19 3 -25 12 -27 37 -68 8 -63 -45 4 -45 33 -61 58 -31 19 23
40 29 40 12 0 -19 -40 -50 -65 -50 -58 0 -84 73 -44 124 25 32 61 34 91 4z
m157 -4 c12 -15 21 -38 21 -51 0 -31 -42 -73 -74 -73 -29 0 -66 42 -66 75 0
35 37 75 70 75 19 0 36 -9 49 -26z m81 14 c0 -9 3 -9 12 0 14 14 54 16 62 3 4
-5 19 -4 36 2 50 19 64 2 68 -77 2 -54 0 -66 -13 -66 -12 0 -15 13 -15 60 0
45 -4 62 -15 66 -28 11 -45 -16 -45 -72 0 -41 -4 -54 -15 -54 -12 0 -15 13
-15 60 0 45 -4 62 -15 66 -28 11 -45 -16 -45 -72 0 -41 -4 -54 -15 -54 -12 0
-15 15 -15 75 0 60 3 75 15 75 8 0 15 -5 15 -12z m-380 -123 c0 -8 -7 -15 -15
-15 -8 0 -15 7 -15 15 0 8 7 15 15 15 8 0 15 -7 15 -15z"/>
<path d="M522 1449 c-26 -10 -25 -32 2 -37 20 -4 46 15 46 34 0 16 -15 17 -48
3z"/>
<path d="M852 1449 c-26 -10 -25 -32 2 -37 20 -4 46 15 46 34 0 16 -15 17 -48
3z"/>
<path d="M1561 1506 c-17 -20 -10 -77 12 -90 25 -16 51 4 55 43 4 36 -12 61
-38 61 -10 0 -23 -6 -29 -14z"/>
<path d="M1822 1508 c-21 -21 -13 -28 28 -28 22 0 40 4 40 8 0 14 -23 32 -40
32 -9 0 -21 -5 -28 -12z"/>
<path d="M2211 1506 c-17 -20 -10 -77 12 -90 25 -16 51 4 55 43 4 36 -12 61
-38 61 -10 0 -23 -6 -29 -14z"/>
</g>
</svg>
